

<svg style="position: absolute; width: 0; height: 0; overflow: hidden; background-color:black" version="1.1" xmlns="http://www.w3.org/2000/svg" xmlns:xlink="http://www.w3.org/1999/xlink" >
	<style>
        circle.bmi {
            fill: none;
            stroke: url(#bmiGradientColor);
            stroke-width: 20px;
            stroke-dasharray: 450;
            stroke-dashoffset: 450;
            animation: bmiCircularProgressBarAnimation 1s linear forwards;
        }
        circle.weekAfterToAchieveTarget {
            fill: none;
            stroke: url(#weekAfterToAchieveTargetGradientColor);
            stroke-width: 20px;
            stroke-dasharray: 450;
            stroke-dashoffset: 450;
            animation: weekAfterToAchieveTargetCircularProgressBarAnimation 1s linear forwards;
        }
        circle.tdee {
            fill: none;
            stroke: url(#tdeeGradientColor);
            stroke-width: 20px;
            stroke-dasharray: 450;
            stroke-dashoffset: 450;
            animation: tdeeCircularProgressBarAnimation 1s linear forwards;
        }
        @keyframes bmiCircularProgressBarAnimation {
            100% {
                stroke-dashoffset: var(--bmiPercentage);
            }
        }
        @keyframes weekAfterToAchieveTargetCircularProgressBarAnimation {
            100% {
                stroke-dashoffset: var(--weekAfterToAchieveTargetPercentage);
            }
        }@keyframes tdeeCircularProgressBarAnimation {
            100% {
                stroke-dashoffset: var(--tdeePercentage);
            }
        }
    </style>
    <defs>
        <symbol id="bmiCircularProgressBar">
            <defs>
                <linearGradient id="bmiGradientColor">
                    <stop offset="0%" stop-color="#2F8BFA"></stop>
                    <stop offset="100%" stop-color="#2FBFDD"></stop>
                </linearGradient>
            </defs>
            <circle class="bmi" cx="80" cy="80" r="70" stroke-linecap="round"></circle>
        </symbol>
        <symbol id="tdeeCircularProgressBar">
            <defs>
                <linearGradient id="tdeeGradientColor">
                    <stop offset="0%" stop-color="#FF6D9A"></stop>
                    <stop offset="100%" stop-color="#FF9BAB"></stop>
                </linearGradient>
            </defs>
            <circle class="tdee" cx="80" cy="80" r="70" stroke-linecap="round"></circle>
        </symbol>
        <symbol id="weekAfterToAchieveTargetCircularProgressBar">
            <defs>
                <linearGradient id="weekAfterToAchieveTargetGradientColor">
                    <stop offset="0%" stop-color="#C58229"></stop>
                    <stop offset="100%" stop-color="#E59A36"></stop>
                </linearGradient>
            </defs>
            <circle class="weekAfterToAchieveTarget" cx="80" cy="80" r="70" stroke-linecap="round"></circle>
        </symbol>
        <symbol id="closeButton" viewBox="0 0 512 512">
            <g>
                <g>
                    <path d="M256,0C114.84,0,0,114.842,0,256s114.84,256,256,256s256-114.842,256-256S397.16,0,256,0z M256,462.452
                        c-113.837,0-206.452-92.614-206.452-206.452S142.163,49.548,256,49.548S462.452,142.163,462.452,256S369.837,462.452,256,462.452z
                        "/>
                </g>
            </g>
            <g>
                <g>
                    <polygon points="355.269,191.767 320.233,156.731 256,220.964 191.767,156.731 156.731,191.767 220.964,256 156.731,320.233 
                        191.767,355.269 256,291.036 320.233,355.269 355.269,320.233 291.036,256 		"/>
                </g>
            </g>
        </symbol>
        <symbol id="calories" viewBox="0 0 24 24" fill="none">
            <path d="M14.5 10.0003C14.5 9.20875 15.5528 8.99895 15.8321 9.73957C16.5077 11.5311 17 13.1337 17 14.0002C17 16.7616 14.7614 19.0002 12 19.0002C9.23858 19.0002 7 16.7616 7 14.0002C7 13.0693 7.56822 11.2887 8.32156 9.33698C9.29743 6.80879 9.78536 5.54469 10.3877 5.4766C10.5804 5.45482 10.7907 5.49399 10.9626 5.58371C11.5 5.86413 11.5 7.24285 11.5 10.0003C11.5 10.8287 12.1716 11.5003 13 11.5003C13.8284 11.5003 14.5 10.8287 14.5 10.0003Z" stroke="#21C1E5"/>
            <path d="M11 19L10.7372 18.343C10.2816 17.204 10.4737 15.9079 11.24 14.95V14.95C11.6296 14.463 12.3704 14.463 12.76 14.95V14.95C13.5263 15.9079 13.7184 17.204 13.2628 18.343L13 19" stroke="#21C1E5"/>     
        </symbol>
        
        <symbol id="protein" viewBox="0 0 512 512" fill="#21C1E5">
            <g> <g> <g> <path d="M256,307.2c5.657,0,10.24-4.585,10.24-10.24V160.427c0-5.655-4.583-10.24-10.24-10.24c-5.655,0-10.24,4.585-10.24,10.24 V296.96C245.76,302.615,250.345,307.2,256,307.2z"/> <path d="M457.357,226.466c-0.315-53.342-11.899-99.309-33.59-133.02c-9.836-15.286-21.453-27.46-34.326-36.226 c-0.205-1.996-0.321-4.007-0.321-6.02c0-16.94,13.782-30.72,30.72-30.72c16.938,0,30.72,13.78,30.72,30.72 c0,13.174,10.719,23.893,23.893,23.893c9.411,0,17.067,7.655,17.067,17.067c0,9.411-7.655,17.067-17.067,17.067h-5.916 c-5.657,0-10.24,4.585-10.24,10.24s4.583,10.24,10.24,10.24h5.916c20.703,0,37.547-16.843,37.547-37.547 s-16.844-37.547-37.547-37.547c-1.883,0-3.413-1.532-3.413-3.413c0-28.232-22.968-51.2-51.2-51.2 c-26.654,0-48.606,20.476-50.977,46.522c-9.881-3.666-20.253-5.562-30.943-5.562c-30.552,0-59.841,11.746-81.92,32.548 c-22.077-20.802-51.368-32.548-81.92-32.548c-33.582,0-64.068,18.64-85.845,52.486c-2.804,4.358-5.435,8.927-7.9,13.683 c-5.016,1.384-10.204,2.097-15.482,2.097H37.547c-9.411,0-17.067-7.655-17.067-17.067c0-9.411,7.655-17.067,17.067-17.067 c13.174,0,23.893-10.719,23.893-23.893c0-16.94,13.78-30.72,30.72-30.72c8.341,0,16.146,3.286,21.976,9.254 c3.953,4.045,10.435,4.122,14.479,0.169c4.045-3.951,4.122-10.435,0.169-14.479C119.069,5.478,106.063,0,92.16,0 c-28.232,0-51.2,22.968-51.2,51.2c0,1.881-1.532,3.413-3.413,3.413C16.843,54.613,0,71.456,0,92.16s16.843,37.547,37.547,37.547 h27.307c1.901,0,3.792-0.082,5.674-0.217c-10.26,27.898-15.67,60.736-15.886,96.977C22.479,240.865,0,273.154,0,310.613 c0,30.72,11.969,46.678,22.528,60.757c9.89,13.186,18.432,24.576,18.432,48.469c0,5.655,4.585,10.24,10.24,10.24h3.413v25.681 c-8.383,5.611-13.653,15.135-13.653,25.519c0,16.94,13.78,30.72,30.72,30.72c7.86,0,15.042-2.967,20.48-7.841 c5.438,4.874,12.62,7.841,20.48,7.841c16.94,0,30.72-13.78,30.72-30.72c0-10.385-5.27-19.908-13.653-25.519V430.08h3.413 c5.655,0,10.24-4.585,10.24-10.24c0-23.893,8.542-35.282,18.432-48.469c10.56-14.081,22.528-30.037,22.528-60.757 c0-50.818-41.342-92.16-92.16-92.16c-5.793,0-11.454,0.563-16.953,1.589c1.14-46.625,11.534-86.428,30.25-115.515 c17.878-27.784,42.249-43.087,68.623-43.087c28.372,0,55.431,12.229,74.24,33.553c1.944,2.204,4.74,3.467,7.68,3.467 s5.736-1.263,7.679-3.467c18.81-21.324,45.87-33.553,74.241-33.553c26.374,0,50.745,15.303,68.624,43.087 c18.715,29.087,29.109,68.892,30.249,115.515c-5.5-1.027-11.16-1.589-16.953-1.589c-50.818,0-92.16,41.342-92.16,92.16 c0,30.72,11.969,46.678,22.528,60.757c5.867,7.823,11.242,15.032,14.66,24.576H337.92c-28.372,0-55.431-12.229-74.241-33.553 c-1.943-2.204-4.74-3.467-7.679-3.467s-5.736,1.263-7.68,3.467c-18.809,21.324-45.868,33.553-74.24,33.553 c-5.655,0-10.24,4.585-10.24,10.24s4.585,10.24,10.24,10.24c30.552,0,59.843-11.746,81.92-32.548 c22.079,20.802,51.368,32.548,81.92,32.548h30.642c0.041,1.117,0.078,2.238,0.078,3.413c0,5.655,4.585,10.24,10.24,10.24h3.413 v25.681c-8.383,5.611-13.653,15.136-13.653,25.519c0,16.94,13.782,30.72,30.72,30.72c7.86,0,15.042-2.967,20.48-7.841 c5.438,4.874,12.62,7.841,20.48,7.841c16.938,0,30.72-13.78,30.72-30.72c0-10.383-5.27-19.908-13.653-25.519V430.08h3.413 c5.655,0,10.24-4.585,10.24-10.24c0-23.893,8.543-35.282,18.432-48.469C500.031,357.291,512,341.333,512,310.613 C512,273.153,489.523,240.865,457.357,226.466z M112.64,491.52c-5.647,0-10.24-4.593-10.24-10.24v-1.798 c0-5.655-4.585-10.24-10.24-10.24s-10.24,4.585-10.24,10.24v1.798c0,5.647-4.593,10.24-10.24,10.24s-10.24-4.593-10.24-10.24 c0-4.317,2.746-8.191,6.831-9.638c4.089-1.449,6.823-5.315,6.823-9.653V430.08h34.133v31.911c0,4.338,2.733,8.204,6.823,9.651 c4.086,1.447,6.831,5.319,6.831,9.638C122.88,486.927,118.287,491.52,112.64,491.52z M92.16,238.933 c39.525,0,71.68,32.155,71.68,71.68c0,23.893-8.542,35.283-18.432,48.469c-9.318,12.426-19.735,26.311-22.054,50.517H60.966 c-2.32-24.206-12.736-38.091-22.054-50.517c-9.89-13.188-18.432-24.576-18.432-48.469v-0.001 C20.48,271.088,52.636,238.933,92.16,238.933z M440.32,491.52c-5.647,0-10.24-4.593-10.24-10.24v-1.798 c0-5.655-4.583-10.24-10.24-10.24c-5.657,0-10.24,4.585-10.24,10.24v1.798c0,5.647-4.593,10.24-10.24,10.24 c-5.647,0-10.24-4.593-10.24-10.24c0-4.317,2.746-8.191,6.831-9.638c4.089-1.449,6.823-5.315,6.823-9.653V430.08h34.133v31.911 c0,4.338,2.733,8.204,6.823,9.651c4.085,1.447,6.831,5.319,6.831,9.638C450.56,486.927,445.967,491.52,440.32,491.52z M473.088,359.083c-9.318,12.426-19.735,26.311-22.053,50.517h-62.389c-2.318-24.206-12.734-38.091-22.053-50.517 c-9.89-13.188-18.432-24.576-18.432-48.469v-0.001c-0.001-39.524,32.155-71.679,71.679-71.679c39.524,0,71.68,32.155,71.68,71.68 C491.52,334.507,482.978,345.896,473.088,359.083z"/> </g> </g> </g>
        </symbol>
        <symbol id="carbohydrates" viewBox="0 0 24 24" fill="none">
            <g><path d="M12 4L10.8522 5.91303C9.94978 7.41704 9.49857 8.16905 9.49857 9C9.49857 9.83095 9.94978 10.583 10.8522 12.087L11.5713 13.2854C11.7627 13.6045 11.8585 13.7641 12 13.7641C12.1415 13.7641 12.2373 13.6045 12.4287 13.2854L13.1478 12.087C14.0502 10.583 14.5014 9.83095 14.5014 9C14.5014 8.16905 14.0502 7.41704 13.1478 5.91303L12 4ZM12 4V2" stroke="#21C1E5"/> <path d="M20.1603 12.5981L17.9296 12.5606C16.1759 12.5311 15.2991 12.5163 14.5794 12.9318C13.8598 13.3473 13.4342 14.114 12.5828 15.6475L11.9045 16.8695C11.7239 17.1949 11.6336 17.3575 11.7043 17.4801C11.7751 17.6027 11.9612 17.6058 12.3332 17.6121L13.7307 17.6356C15.4844 17.6651 16.3612 17.6799 17.0809 17.2644C17.8005 16.8489 18.2262 16.0821 19.0775 14.5486L20.1603 12.5981ZM20.1603 12.5981L21.8923 11.5981" stroke="#21C1E5"/> <path d="M3.83972 12.5981L6.07035 12.5606C7.82407 12.5311 8.70093 12.5163 9.42056 12.9318C10.1402 13.3473 10.5658 14.114 11.4172 15.6475L12.0955 16.8695C12.2761 17.1949 12.3664 17.3575 12.2957 17.4801C12.2249 17.6027 12.0388 17.6058 11.6668 17.6121L10.2693 17.6356C8.51561 17.6651 7.63876 17.6799 6.91913 17.2644C6.1995 16.8489 5.77385 16.0821 4.92254 14.5486L3.83972 12.5981ZM3.83972 12.5981L2.10767 11.5981" stroke="#21C1E5"/> <path d="M12 15V22.5" stroke="#21C1E5"/> </g>
        </symbol>
        <symbol id="fat" viewBox="0 0 24 24" fill="none">
            <circle cx="12" cy="12" r="8.5" stroke="#21C1E5"/>
            <circle cx="12" cy="12" r="3" stroke="#21C1E5"/>
            <path d="M15 12L15.6263 11.2632C16.475 10.2647 18.1042 10.9576 17.9739 12.2615V12.2615C17.833 13.6704 19.6928 14.3019 20.4389 13.0985L20.5 13" stroke="#21C1E5"/>
            <path d="M9 12L8.82254 13.0056C8.54237 14.5932 6.27667 14.628 5.94787 13.0498L5.77663 12.2278C5.53741 11.0795 3.96205 10.9219 3.5 12V12" stroke="#21C1E5"/>
            <circle cx="9.5" cy="6.5" r="0.5" stroke="#21C1E5"/>
            <circle cx="16.5" cy="8.5" r="0.5" stroke="#21C1E5"/>
            <circle cx="13.5" cy="5.5" r="0.5" stroke="#21C1E5"/>
        </symbol>
        <symbol fill="none" id="undo" viewBox="0 0 24 24">
            <path fill-rule="evenodd" clip-rule="evenodd" d="M8.70714 3.29289C9.09766 3.68342 9.09766 4.31658 8.70714 4.70711L6.41424 7H14C17.866 7 21 10.134 21 14C21 17.866 17.866 21 14 21H8.15388C7.60159 21 7.15388 20.5523 7.15388 20C7.15388 19.4477 7.60159 19 8.15388 19H14C16.7615 19 19 16.7614 19 14C19 11.2386 16.7615 9 14 9H6.41424L8.70714 11.2929C9.09766 11.6834 9.09766 12.3166 8.70714 12.7071C8.31661 13.0976 7.68345 13.0976 7.29292 12.7071L2.58582 8L7.29292 3.29289C7.68345 2.90237 8.31661 2.90237 8.70714 3.29289Z" fill="#000000"/>
        </symbol>
        <symbol fill="none" id="bold" viewBox="0 0 24 24">
            <path id="Vector" d="M8 12H12.5M8 12V5H12.5C14.433 5 16 6.567 16 8.5C16 10.433 14.433 12 12.5 12M8 12V19H13.5C15.433 19 17 17.433 17 15.5C17 13.567 15.433 12 13.5 12H12.5" stroke="#000000" stroke-width="2" stroke-linecap="round" stroke-linejoin="round"/>
        </symbol>
        <symbol fill="none" id="italic" viewBox="0 0 24 24">
            <path d="M10 3H20M4 21H14M15 3L9 21" stroke="#000000" stroke-width="2" stroke-linecap="round" stroke-linejoin="round"/>
        </symbol>
        <symbol fill="none" id="underline" viewBox="0 0 24 24">
            <path d="M7 4V11C7 13.7614 9.23858 16 12 16C14.7614 16 17 13.7614 17 11V4" stroke="#52525B" stroke-width="2" stroke-linecap="round"/> <path d="M5 20H19" stroke="#000000" stroke-width="2" stroke-linecap="round" stroke-linejoin="round"/>
        </symbol>
        <symbol fill="none" id="link" viewBox="0 0 24 24">
            <path d="M14 7H16C18.7614 7 21 9.23858 21 12C21 14.7614 18.7614 17 16 17H14M10 7H8C5.23858 7 3 9.23858 3 12C3 14.7614 5.23858 17 8 17H10M8 12H16" stroke="#000000" stroke-width="2" stroke-linecap="round" stroke-linejoin="round"/>
        </symbol>
        <symbol fill="none" id="quote" viewBox="0 0 24 24">
            <path fill-rule="evenodd" clip-rule="evenodd" d="M9.62231 6.78278C10.0546 6.43909 10.1265 5.81001 9.78277 5.3777C9.43908 4.94539 8.81001 4.87354 8.37769 5.21724C4.73471 8.11342 4 11.8784 4 16C4 17.6569 5.34315 19 7 19C8.65685 19 10 17.6569 10 16C10 14.3432 8.65685 13 7 13C6.71233 13 6.43412 13.0405 6.17076 13.1161C6.5162 10.5872 7.45738 8.50391 9.62231 6.78278ZM20 16C20 17.6569 18.6569 19 17 19C15.3431 19 14 17.6569 14 16C14 11.8784 14.7347 8.11342 18.3777 5.21724C18.81 4.87354 19.4391 4.94539 19.7828 5.3777C20.1265 5.81001 20.0546 6.43909 19.6223 6.78278C17.4574 8.50391 16.5162 10.5872 16.1708 13.1161C16.4341 13.0405 16.7123 13 17 13C18.6569 13 20 14.3432 20 16Z" fill="#000000"/>
        </symbol>
        <symbol fill="none" id="list-ol" viewBox="0 0 24 24">
            <path d="M10 6L21 6.00066M10 12L21 12.0007M10 18L21 18.0007M3 5L5 4V10M5 10H3M5 10H7M7 20H3L6.41274 17.0139C6.78593 16.6873 7 16.2156 7 15.7197C7 14.7699 6.23008 14 5.28033 14H5C4.06808 14 3.28503 14.6374 3.06301 15.5" stroke="#000000" stroke-width="2" stroke-linecap="round" stroke-linejoin="round"/>
        </symbol>
        <symbol fill="none" id="list-ul" viewBox="0 0 24 24">
            <path d="M8 6.00067L21 6.00139M8 12.0007L21 12.0015M8 18.0007L21 18.0015M3.5 6H3.51M3.5 12H3.51M3.5 18H3.51M4 6C4 6.27614 3.77614 6.5 3.5 6.5C3.22386 6.5 3 6.27614 3 6C3 5.72386 3.22386 5.5 3.5 5.5C3.77614 5.5 4 5.72386 4 6ZM4 12C4 12.2761 3.77614 12.5 3.5 12.5C3.22386 12.5 3 12.2761 3 12C3 11.7239 3.22386 11.5 3.5 11.5C3.77614 11.5 4 11.7239 4 12ZM4 18C4 18.2761 3.77614 18.5 3.5 18.5C3.22386 18.5 3 18.2761 3 18C3 17.7239 3.22386 17.5 3.5 17.5C3.77614 17.5 4 17.7239 4 18Z" stroke="#000000" stroke-width="2" stroke-linecap="round" stroke-linejoin="round"/>
        </symbol>
        <symbol fill="none" id="image" viewBox="0 0 24 24">
            <path id="Vector" d="M3.00005 17.0001C3 16.9355 3 16.8689 3 16.8002V7.2002C3 6.08009 3 5.51962 3.21799 5.0918C3.40973 4.71547 3.71547 4.40973 4.0918 4.21799C4.51962 4 5.08009 4 6.2002 4H17.8002C18.9203 4 19.4801 4 19.9079 4.21799C20.2842 4.40973 20.5905 4.71547 20.7822 5.0918C21 5.5192 21 6.07899 21 7.19691V16.8031C21 17.2881 21 17.6679 20.9822 17.9774M3.00005 17.0001C3.00082 17.9884 3.01337 18.5058 3.21799 18.9074C3.40973 19.2837 3.71547 19.5905 4.0918 19.7822C4.5192 20 5.07899 20 6.19691 20H17.8036C18.9215 20 19.4805 20 19.9079 19.7822C20.2842 19.5905 20.5905 19.2837 20.7822 18.9074C20.9055 18.6654 20.959 18.3813 20.9822 17.9774M3.00005 17.0001L7.76798 11.4375L7.76939 11.436C8.19227 10.9426 8.40406 10.6955 8.65527 10.6064C8.87594 10.5282 9.11686 10.53 9.33643 10.6113C9.58664 10.704 9.79506 10.9539 10.2119 11.4541L12.8831 14.6595C13.269 15.1226 13.463 15.3554 13.6986 15.4489C13.9065 15.5313 14.1357 15.5406 14.3501 15.4773C14.5942 15.4053 14.8091 15.1904 15.2388 14.7607L15.7358 14.2637C16.1733 13.8262 16.3921 13.6076 16.6397 13.5361C16.8571 13.4734 17.0896 13.4869 17.2988 13.5732C17.537 13.6716 17.7302 13.9124 18.1167 14.3955L20.9822 17.9774M20.9822 17.9774L21 17.9996M15 10C14.4477 10 14 9.55228 14 9C14 8.44772 14.4477 8 15 8C15.5523 8 16 8.44772 16 9C16 9.55228 15.5523 10 15 10Z" stroke="#000000" stroke-width="2" stroke-linecap="round" stroke-linejoin="round"/> 
        </symbol>
        <symbol fill="none" id="heading-1" viewBox="0 0 24 24">
            <path id="Vector" d="M16 10L19 9L19 19M3 5V12M3 12V19M3 12H11M11 5V12M11 12V19" stroke="#000000" stroke-width="2" stroke-linecap="round" stroke-linejoin="round"/>
        </symbol>
        <symbol fill="none" id="heading-2" viewBox="0 0 24 24">
            <path id="Vector" d="M15 12.5V12C15 10.3431 16.3431 9 18 9H18.1716C19.7337 9 20.9996 10.2665 20.9996 11.8286C20.9996 12.5788 20.702 13.2982 20.1716 13.8286L15 19.0002L21 19M3 5V12M3 12V19M3 12H11M11 5V12M11 12V19" stroke="#000000" stroke-width="2" stroke-linecap="round" stroke-linejoin="round"/>
        </symbol>
        <symbol fill="none" id="heading-3" viewBox="0 0 24 24">
            <path id="Vector" d="M15 9H21L17 13H18C19.6569 13 21 14.3431 21 16C21 17.6569 19.6569 19 18 19C17.3793 19 16.7738 18.8077 16.2671 18.4492C15.7604 18.0907 15.3775 17.5838 15.1709 16.9985M3 5V12M3 12V19M3 12H11M11 5V12M11 12V19" stroke="#000000" stroke-width="2" stroke-linecap="round" stroke-linejoin="round"/>
        </symbol>
        <symbol fill="none" id="down-arrow" viewBox="0 0 10 6">
            <path stroke='#6B7280' stroke-linecap='round' stroke-linejoin='round' stroke-width='2' d='m1 1 4 4 4-4'/>
        </symbol>
        <symbol fill="none" id="tag" viewBox="0 0 24 24">
            <path d="M7.0498 7.0498H7.0598M10.5118 3H7.8C6.11984 3 5.27976 3 4.63803 3.32698C4.07354 3.6146 3.6146 4.07354 3.32698 4.63803C3 5.27976 3 6.11984 3 7.8V10.5118C3 11.2455 3 11.6124 3.08289 11.9577C3.15638 12.2638 3.27759 12.5564 3.44208 12.8249C3.6276 13.1276 3.88703 13.387 4.40589 13.9059L9.10589 18.6059C10.2939 19.7939 10.888 20.388 11.5729 20.6105C12.1755 20.8063 12.8245 20.8063 13.4271 20.6105C14.112 20.388 14.7061 19.7939 15.8941 18.6059L18.6059 15.8941C19.7939 14.7061 20.388 14.112 20.6105 13.4271C20.8063 12.8245 20.8063 12.1755 20.6105 11.5729C20.388 10.888 19.7939 10.2939 18.6059 9.10589L13.9059 4.40589C13.387 3.88703 13.1276 3.6276 12.8249 3.44208C12.5564 3.27759 12.2638 3.15638 11.9577 3.08289C11.6124 3 11.2455 3 10.5118 3ZM7.5498 7.0498C7.5498 7.32595 7.32595 7.5498 7.0498 7.5498C6.77366 7.5498 6.5498 7.32595 6.5498 7.0498C6.5498 6.77366 6.77366 6.5498 7.0498 6.5498C7.32595 6.5498 7.5498 6.77366 7.5498 7.0498Z" stroke="#000000" stroke-width="2" stroke-linecap="round" stroke-linejoin="round"/>
        </symbol>
        <symbol fill="#000000" id="upload" viewBox="0 0 24 24">
            <path d="M9 16h6v-6h4l-7-7-7 7h4zm-4 2h14v2H5z"/>        
        </symbol>
        <symbol fill="none" id="sms" viewBox="0 0 1024 1024">
            <path d="M789.333333 832H234.666667l-128 128V234.666667c0-70.4 57.6-128 128-128h554.666666c70.4 0 128 57.6 128 128v469.333333c0 70.4-57.6 128-128 128z" fill="#3498DB"/>
            <path d="M512 469.333333m-64 0a64 64 0 1 0 128 0 64 64 0 1 0-128 0Z" fill="#FFFFFF"/>
            <path d="M725.333333 469.333333m-64 0a64 64 0 1 0 128 0 64 64 0 1 0-128 0Z" fill="#FFFFFF"/>
            <path d="M298.666667 469.333333m-64 0a64 64 0 1 0 128 0 64 64 0 1 0-128 0Z" fill="#FFFFFF"/>
        </symbol>
        <symbol fill="black" fill-rule="nonzero" id="news" viewBox="0 0 1024 1024">
            <path d="M95.68 152.17l13.93 0 0 -15.74c0,-48.12 39.29,-87.41 87.4,-87.41l553.98 0c48.11,0 87.4,39.29 87.4,87.41l0 537.31c0,11.46 -9.3,20.75 -20.76,20.75l-80.58 0 0 82.39c0,11.46 -9.3,20.76 -20.76,20.76l-687.25 0c-11.47,0 -20.76,-9.3 -20.76,-20.76l0 -537.31c0,-48.12 39.28,-87.4 87.4,-87.4zm27.27 297.15c-27.31,0 -27.31,-41.52 0,-41.52l168.28 0c27.31,0 27.31,41.52 0,41.52l-168.28 0zm0 175.53c-27.31,0 -27.31,-41.52 0,-41.52l168.28 0c27.31,0 27.31,41.52 0,41.52l-168.28 0zm0 -87.76c-27.31,0 -27.31,-41.52 0,-41.52l168.28 0c27.31,0 27.31,41.52 0,41.52l-168.28 0zm278.67 -129.29l220.76 0c11.47,0 20.76,9.3 20.76,20.76l0 175.53c0,11.47 -9.29,20.76 -20.76,20.76l-220.76 0c-11.46,0 -20.76,-9.29 -20.76,-20.76l0 -175.53c0,-11.46 9.3,-20.76 20.76,-20.76zm200 41.52l-179.24 0 0 134.01 179.24 0 0 -134.01zm-485.01 -208.9l512.11 0c11.46,0 20.76,9.3 20.76,20.76l0 72.38c0,11.46 -9.3,20.76 -20.76,20.76l-512.11 0c-11.46,0 -20.76,-9.3 -20.76,-20.76l0 -72.38c0,-11.46 9.3,-20.76 20.76,-20.76zm491.35 41.52l-470.59 0 0 30.86 470.59 0 0 -30.86zm-456.83 -129.77l498.52 0c48.12,0 87.4,39.29 87.4,87.4l0 413.41 59.82 0 0 -516.55c0,-25.19 -20.69,-45.89 -45.88,-45.89l-553.98 0c-25.19,0 -45.88,20.7 -45.88,45.89l0 15.74zm498.52 41.52l-553.97 0c-25.19,0 -45.89,20.69 -45.89,45.88l0 516.55 645.74 0 0 -516.55c0,-25.19 -20.69,-45.88 -45.88,-45.88z"/>
        </symbol>
    </defs>
</svg>