

<svg style="position: absolute; width: 0; height: 0; overflow: hidden; background-color:black" version="1.1" xmlns="http://www.w3.org/2000/svg" xmlns:xlink="http://www.w3.org/1999/xlink" >
	<style>
        circle.bmi {
            fill: none;
            stroke: url(#bmiGradientColor);
            stroke-width: 20px;
            stroke-dasharray: 450;
            stroke-dashoffset: 450;
            animation: bmiCircularProgressBarAnimation 1s linear forwards;
        }
        circle.weekAfterToAchieveTarget {
            fill: none;
            stroke: url(#weekAfterToAchieveTargetGradientColor);
            stroke-width: 20px;
            stroke-dasharray: 450;
            stroke-dashoffset: 450;
            animation: weekAfterToAchieveTargetCircularProgressBarAnimation 1s linear forwards;
        }
        circle.tdee {
            fill: none;
            stroke: url(#tdeeGradientColor);
            stroke-width: 20px;
            stroke-dasharray: 450;
            stroke-dashoffset: 450;
            animation: tdeeCircularProgressBarAnimation 1s linear forwards;
        }
        @keyframes bmiCircularProgressBarAnimation {
            100% {
                stroke-dashoffset: var(--bmiPercentage);
            }
        }
        @keyframes weekAfterToAchieveTargetCircularProgressBarAnimation {
            100% {
                stroke-dashoffset: var(--weekAfterToAchieveTargetPercentage);
            }
        }@keyframes tdeeCircularProgressBarAnimation {
            100% {
                stroke-dashoffset: var(--tdeePercentage);
            }
        }
    </style>
    <defs>
        <symbol id="bmiCircularProgressBar">
            <defs>
                <linearGradient id="bmiGradientColor">
                    <stop offset="0%" stop-color="#2F8BFA"></stop>
                    <stop offset="100%" stop-color="#2FBFDD"></stop>
                </linearGradient>
            </defs>
            <circle class="bmi" cx="80" cy="80" r="70" stroke-linecap="round"></circle>
        </symbol>
        <symbol id="tdeeCircularProgressBar">
            <defs>
                <linearGradient id="tdeeGradientColor">
                    <stop offset="0%" stop-color="#FF6D9A"></stop>
                    <stop offset="100%" stop-color="#FF9BAB"></stop>
                </linearGradient>
            </defs>
            <circle class="tdee" cx="80" cy="80" r="70" stroke-linecap="round"></circle>
        </symbol>
        <symbol id="weekAfterToAchieveTargetCircularProgressBar">
            <defs>
                <linearGradient id="weekAfterToAchieveTargetGradientColor">
                    <stop offset="0%" stop-color="#C58229"></stop>
                    <stop offset="100%" stop-color="#E59A36"></stop>
                </linearGradient>
            </defs>
            <circle class="weekAfterToAchieveTarget" cx="80" cy="80" r="70" stroke-linecap="round"></circle>
        </symbol>
        <symbol id="closeButton" viewBox="0 0 512 512">
            <g>
                <g>
                    <path d="M256,0C114.84,0,0,114.842,0,256s114.84,256,256,256s256-114.842,256-256S397.16,0,256,0z M256,462.452
                        c-113.837,0-206.452-92.614-206.452-206.452S142.163,49.548,256,49.548S462.452,142.163,462.452,256S369.837,462.452,256,462.452z
                        "/>
                </g>
            </g>
            <g>
                <g>
                    <polygon points="355.269,191.767 320.233,156.731 256,220.964 191.767,156.731 156.731,191.767 220.964,256 156.731,320.233 
                        191.767,355.269 256,291.036 320.233,355.269 355.269,320.233 291.036,256 		"/>
                </g>
            </g>
        </symbol>
        <symbol id="calories" viewBox="0 0 24 24" fill="none">
            <path d="M14.5 10.0003C14.5 9.20875 15.5528 8.99895 15.8321 9.73957C16.5077 11.5311 17 13.1337 17 14.0002C17 16.7616 14.7614 19.0002 12 19.0002C9.23858 19.0002 7 16.7616 7 14.0002C7 13.0693 7.56822 11.2887 8.32156 9.33698C9.29743 6.80879 9.78536 5.54469 10.3877 5.4766C10.5804 5.45482 10.7907 5.49399 10.9626 5.58371C11.5 5.86413 11.5 7.24285 11.5 10.0003C11.5 10.8287 12.1716 11.5003 13 11.5003C13.8284 11.5003 14.5 10.8287 14.5 10.0003Z" stroke="#21C1E5"/>
            <path d="M11 19L10.7372 18.343C10.2816 17.204 10.4737 15.9079 11.24 14.95V14.95C11.6296 14.463 12.3704 14.463 12.76 14.95V14.95C13.5263 15.9079 13.7184 17.204 13.2628 18.343L13 19" stroke="#21C1E5"/>     
        </symbol>
        
        <symbol id="protein" viewBox="0 0 512 512" fill="#21C1E5">
            <g> <g> <g> <path d="M256,307.2c5.657,0,10.24-4.585,10.24-10.24V160.427c0-5.655-4.583-10.24-10.24-10.24c-5.655,0-10.24,4.585-10.24,10.24 V296.96C245.76,302.615,250.345,307.2,256,307.2z"/> <path d="M457.357,226.466c-0.315-53.342-11.899-99.309-33.59-133.02c-9.836-15.286-21.453-27.46-34.326-36.226 c-0.205-1.996-0.321-4.007-0.321-6.02c0-16.94,13.782-30.72,30.72-30.72c16.938,0,30.72,13.78,30.72,30.72 c0,13.174,10.719,23.893,23.893,23.893c9.411,0,17.067,7.655,17.067,17.067c0,9.411-7.655,17.067-17.067,17.067h-5.916 c-5.657,0-10.24,4.585-10.24,10.24s4.583,10.24,10.24,10.24h5.916c20.703,0,37.547-16.843,37.547-37.547 s-16.844-37.547-37.547-37.547c-1.883,0-3.413-1.532-3.413-3.413c0-28.232-22.968-51.2-51.2-51.2 c-26.654,0-48.606,20.476-50.977,46.522c-9.881-3.666-20.253-5.562-30.943-5.562c-30.552,0-59.841,11.746-81.92,32.548 c-22.077-20.802-51.368-32.548-81.92-32.548c-33.582,0-64.068,18.64-85.845,52.486c-2.804,4.358-5.435,8.927-7.9,13.683 c-5.016,1.384-10.204,2.097-15.482,2.097H37.547c-9.411,0-17.067-7.655-17.067-17.067c0-9.411,7.655-17.067,17.067-17.067 c13.174,0,23.893-10.719,23.893-23.893c0-16.94,13.78-30.72,30.72-30.72c8.341,0,16.146,3.286,21.976,9.254 c3.953,4.045,10.435,4.122,14.479,0.169c4.045-3.951,4.122-10.435,0.169-14.479C119.069,5.478,106.063,0,92.16,0 c-28.232,0-51.2,22.968-51.2,51.2c0,1.881-1.532,3.413-3.413,3.413C16.843,54.613,0,71.456,0,92.16s16.843,37.547,37.547,37.547 h27.307c1.901,0,3.792-0.082,5.674-0.217c-10.26,27.898-15.67,60.736-15.886,96.977C22.479,240.865,0,273.154,0,310.613 c0,30.72,11.969,46.678,22.528,60.757c9.89,13.186,18.432,24.576,18.432,48.469c0,5.655,4.585,10.24,10.24,10.24h3.413v25.681 c-8.383,5.611-13.653,15.135-13.653,25.519c0,16.94,13.78,30.72,30.72,30.72c7.86,0,15.042-2.967,20.48-7.841 c5.438,4.874,12.62,7.841,20.48,7.841c16.94,0,30.72-13.78,30.72-30.72c0-10.385-5.27-19.908-13.653-25.519V430.08h3.413 c5.655,0,10.24-4.585,10.24-10.24c0-23.893,8.542-35.282,18.432-48.469c10.56-14.081,22.528-30.037,22.528-60.757 c0-50.818-41.342-92.16-92.16-92.16c-5.793,0-11.454,0.563-16.953,1.589c1.14-46.625,11.534-86.428,30.25-115.515 c17.878-27.784,42.249-43.087,68.623-43.087c28.372,0,55.431,12.229,74.24,33.553c1.944,2.204,4.74,3.467,7.68,3.467 s5.736-1.263,7.679-3.467c18.81-21.324,45.87-33.553,74.241-33.553c26.374,0,50.745,15.303,68.624,43.087 c18.715,29.087,29.109,68.892,30.249,115.515c-5.5-1.027-11.16-1.589-16.953-1.589c-50.818,0-92.16,41.342-92.16,92.16 c0,30.72,11.969,46.678,22.528,60.757c5.867,7.823,11.242,15.032,14.66,24.576H337.92c-28.372,0-55.431-12.229-74.241-33.553 c-1.943-2.204-4.74-3.467-7.679-3.467s-5.736,1.263-7.68,3.467c-18.809,21.324-45.868,33.553-74.24,33.553 c-5.655,0-10.24,4.585-10.24,10.24s4.585,10.24,10.24,10.24c30.552,0,59.843-11.746,81.92-32.548 c22.079,20.802,51.368,32.548,81.92,32.548h30.642c0.041,1.117,0.078,2.238,0.078,3.413c0,5.655,4.585,10.24,10.24,10.24h3.413 v25.681c-8.383,5.611-13.653,15.136-13.653,25.519c0,16.94,13.782,30.72,30.72,30.72c7.86,0,15.042-2.967,20.48-7.841 c5.438,4.874,12.62,7.841,20.48,7.841c16.938,0,30.72-13.78,30.72-30.72c0-10.383-5.27-19.908-13.653-25.519V430.08h3.413 c5.655,0,10.24-4.585,10.24-10.24c0-23.893,8.543-35.282,18.432-48.469C500.031,357.291,512,341.333,512,310.613 C512,273.153,489.523,240.865,457.357,226.466z M112.64,491.52c-5.647,0-10.24-4.593-10.24-10.24v-1.798 c0-5.655-4.585-10.24-10.24-10.24s-10.24,4.585-10.24,10.24v1.798c0,5.647-4.593,10.24-10.24,10.24s-10.24-4.593-10.24-10.24 c0-4.317,2.746-8.191,6.831-9.638c4.089-1.449,6.823-5.315,6.823-9.653V430.08h34.133v31.911c0,4.338,2.733,8.204,6.823,9.651 c4.086,1.447,6.831,5.319,6.831,9.638C122.88,486.927,118.287,491.52,112.64,491.52z M92.16,238.933 c39.525,0,71.68,32.155,71.68,71.68c0,23.893-8.542,35.283-18.432,48.469c-9.318,12.426-19.735,26.311-22.054,50.517H60.966 c-2.32-24.206-12.736-38.091-22.054-50.517c-9.89-13.188-18.432-24.576-18.432-48.469v-0.001 C20.48,271.088,52.636,238.933,92.16,238.933z M440.32,491.52c-5.647,0-10.24-4.593-10.24-10.24v-1.798 c0-5.655-4.583-10.24-10.24-10.24c-5.657,0-10.24,4.585-10.24,10.24v1.798c0,5.647-4.593,10.24-10.24,10.24 c-5.647,0-10.24-4.593-10.24-10.24c0-4.317,2.746-8.191,6.831-9.638c4.089-1.449,6.823-5.315,6.823-9.653V430.08h34.133v31.911 c0,4.338,2.733,8.204,6.823,9.651c4.085,1.447,6.831,5.319,6.831,9.638C450.56,486.927,445.967,491.52,440.32,491.52z M473.088,359.083c-9.318,12.426-19.735,26.311-22.053,50.517h-62.389c-2.318-24.206-12.734-38.091-22.053-50.517 c-9.89-13.188-18.432-24.576-18.432-48.469v-0.001c-0.001-39.524,32.155-71.679,71.679-71.679c39.524,0,71.68,32.155,71.68,71.68 C491.52,334.507,482.978,345.896,473.088,359.083z"/> </g> </g> </g>
        </symbol>
        <symbol id="carbohydrates" viewBox="0 0 24 24" fill="none">
            <g><path d="M12 4L10.8522 5.91303C9.94978 7.41704 9.49857 8.16905 9.49857 9C9.49857 9.83095 9.94978 10.583 10.8522 12.087L11.5713 13.2854C11.7627 13.6045 11.8585 13.7641 12 13.7641C12.1415 13.7641 12.2373 13.6045 12.4287 13.2854L13.1478 12.087C14.0502 10.583 14.5014 9.83095 14.5014 9C14.5014 8.16905 14.0502 7.41704 13.1478 5.91303L12 4ZM12 4V2" stroke="#21C1E5"/> <path d="M20.1603 12.5981L17.9296 12.5606C16.1759 12.5311 15.2991 12.5163 14.5794 12.9318C13.8598 13.3473 13.4342 14.114 12.5828 15.6475L11.9045 16.8695C11.7239 17.1949 11.6336 17.3575 11.7043 17.4801C11.7751 17.6027 11.9612 17.6058 12.3332 17.6121L13.7307 17.6356C15.4844 17.6651 16.3612 17.6799 17.0809 17.2644C17.8005 16.8489 18.2262 16.0821 19.0775 14.5486L20.1603 12.5981ZM20.1603 12.5981L21.8923 11.5981" stroke="#21C1E5"/> <path d="M3.83972 12.5981L6.07035 12.5606C7.82407 12.5311 8.70093 12.5163 9.42056 12.9318C10.1402 13.3473 10.5658 14.114 11.4172 15.6475L12.0955 16.8695C12.2761 17.1949 12.3664 17.3575 12.2957 17.4801C12.2249 17.6027 12.0388 17.6058 11.6668 17.6121L10.2693 17.6356C8.51561 17.6651 7.63876 17.6799 6.91913 17.2644C6.1995 16.8489 5.77385 16.0821 4.92254 14.5486L3.83972 12.5981ZM3.83972 12.5981L2.10767 11.5981" stroke="#21C1E5"/> <path d="M12 15V22.5" stroke="#21C1E5"/> </g>
        </symbol>
        <symbol id="fat" viewBox="0 0 24 24" fill="none">
            <circle cx="12" cy="12" r="8.5" stroke="#21C1E5"/>
            <circle cx="12" cy="12" r="3" stroke="#21C1E5"/>
            <path d="M15 12L15.6263 11.2632C16.475 10.2647 18.1042 10.9576 17.9739 12.2615V12.2615C17.833 13.6704 19.6928 14.3019 20.4389 13.0985L20.5 13" stroke="#21C1E5"/>
            <path d="M9 12L8.82254 13.0056C8.54237 14.5932 6.27667 14.628 5.94787 13.0498L5.77663 12.2278C5.53741 11.0795 3.96205 10.9219 3.5 12V12" stroke="#21C1E5"/>
            <circle cx="9.5" cy="6.5" r="0.5" stroke="#21C1E5"/>
            <circle cx="16.5" cy="8.5" r="0.5" stroke="#21C1E5"/>
            <circle cx="13.5" cy="5.5" r="0.5" stroke="#21C1E5"/>
        </symbol>
    </defs>
</svg>